<mxfile host="app.diagrams.net" modified="2023-03-28T23:35:52.824Z" agent="Mozilla/5.0 (Windows NT 10.0; Win64; x64) AppleWebKit/537.36 (KHTML, like Gecko) Chrome/111.0.0.0 Safari/537.36" version="21.1.1" etag="X1WwFf49Kq5O9TskUkQj" type="github">
  <diagram name="Page-1" id="YCHGAw4nK2PAv0towgow">
    <mxGraphModel>
      <root>
        <mxCell id="0" />
        <mxCell id="1" parent="0" />
      </root>
    </mxGraphModel>
  </diagram>
</mxfile>
